<svg xmlns="http://www.w3.org/2000/svg" width="1280" height="800" viewBox="0 0 1280 800">
  <defs>
    <!-- Deep Abyss Background -->
    <linearGradient id="abyss-bg" x1="0%" y1="0%" x2="0%" y2="100%">
      <stop offset="0%" stop-color="#020508" />
      <stop offset="50%" stop-color="#040b12" />
      <stop offset="100%" stop-color="#000000" />
    </linearGradient>

    <!-- Creature Bioluminescent Glow -->
    <radialGradient id="creature-glow" cx="50%" cy="50%" r="50%">
      <stop offset="0%" stop-color="#00ffff" stop-opacity="0.4" />
      <stop offset="40%" stop-color="#0088aa" stop-opacity="0.1" />
      <stop offset="100%" stop-color="#000000" stop-opacity="0" />
    </radialGradient>

    <!-- Creature Body Gradient (Volumetric) -->
    <linearGradient id="creature-body" x1="0%" y1="0%" x2="100%" y2="0%">
      <stop offset="0%" stop-color="rgba(0,0,0,0.9)" />
      <stop offset="20%" stop-color="rgba(0, 100, 120, 0.3)" />
      <stop offset="50%" stop-color="rgba(0, 255, 255, 0.15)" />
      <stop offset="80%" stop-color="rgba(0, 100, 120, 0.3)" />
      <stop offset="100%" stop-color="rgba(0,0,0,0.9)" />
    </linearGradient>

    <!-- Filters -->
    <filter id="glow-heavy" x="-50%" y="-50%" width="200%" height="200%">
      <feGaussianBlur stdDeviation="30" result="blur1" />
      <feGaussianBlur stdDeviation="10" result="blur2" />
      <feMerge>
        <feMergeNode in="blur1" />
        <feMergeNode in="blur2" />
        <feMergeNode in="SourceGraphic" />
      </feMerge>
    </filter>

    <filter id="glow-subtle" x="-20%" y="-20%" width="140%" height="140%">
      <feGaussianBlur stdDeviation="3" result="blur" />
      <feMerge>
        <feMergeNode in="blur" />
        <feMergeNode in="SourceGraphic" />
      </feMerge>
    </filter>

    <filter id="noise">
      <feTurbulence type="fractalNoise" baseFrequency="0.6" numOctaves="3" stitchTiles="stitch"/>
      <feColorMatrix type="matrix" values="1 0 0 0 0  0 1 0 0 0  0 0 1 0 0  0 0 0 0.12 0"/>
    </filter>

    <!-- Heavy Vignette to encroach on text -->
    <radialGradient id="vignette-dark" cx="50%" cy="50%" r="75%">
      <stop offset="50%" stop-color="#000" stop-opacity="0" />
      <stop offset="100%" stop-color="#000" stop-opacity="1" />
    </radialGradient>
  </defs>

  <!-- 1. Background -->
  <rect width="1280" height="800" fill="url(#abyss-bg)" />

  <!-- 2. Central Organism: The "Deep Sea Leech" / Siphonophore Hybrid -->
  <g transform="translate(1050, 400)">
    <!-- Massive Ambient Glow -->
    <ellipse cx="0" cy="0" rx="250" ry="500" fill="url(#creature-glow)" filter="url(#glow-heavy)" opacity="0.6" />

    <!-- Translucent Body Silhouette -->
    <path d="M0,-650 C-60,-400 -40,400 0,650 C40,400 60,-400 0,-650" fill="url(#creature-body)" stroke="rgba(255,255,255,0.05)" stroke-width="2" />

    <!-- Internal Bioluminescent Structures (Photophores) -->
    <g stroke="#ccffff" stroke-width="2" fill="none" opacity="0.8" filter="url(#glow-subtle)">
      <!-- Spacing increases towards the bottom -->
      <path d="M-45,-450 Q0,-430 45,-450" />
      <path d="M-48,-350 Q0,-330 48,-350" />
      <path d="M-50,-250 Q0,-230 50,-250" />
      <path d="M-52,-150 Q0,-130 52,-150" />
      <path d="M-54,-50 Q0,-30 54,-50" />
      <path d="M-55,50 Q0,70 55,50" />
      <path d="M-52,150 Q0,170 52,150" />
      <path d="M-48,250 Q0,270 48,250" />
      <path d="M-42,350 Q0,370 42,350" />
      <path d="M-35,450 Q0,470 35,450" />
    </g>

    <!-- Trailing Threads / Tentacles (Faint) -->
    <g stroke="#ffffff" stroke-width="1" fill="none" opacity="0.2">
      <path d="M-10,600 Q-30,700 -60,800" />
      <path d="M10,600 Q30,700 60,800" />
      <path d="M0,620 Q10,700 -10,800" />
    </g>
  </g>

  <!-- 3. Marine Snow / Particulates -->
  <g fill="#ffffff" opacity="0.4">
    <circle cx="100" cy="100" r="1" />
    <circle cx="300" cy="50" r="1.5" />
    <circle cx="500" cy="200" r="1" />
    <circle cx="150" cy="400" r="1.2" />
    <circle cx="250" cy="600" r="1" />
    <circle cx="400" cy="750" r="1.5" />
    <circle cx="700" cy="150" r="1" />
    <circle cx="800" cy="300" r="1.2" />
    <circle cx="600" cy="650" r="1" />
    <circle cx="900" cy="700" r="1.5" />
    <circle cx="1200" cy="200" r="1" />
    <circle cx="1150" cy="600" r="1.2" />
  </g>

  <!-- 4. Typography Layer -->
  <g transform="translate(80, 180)">
    <!-- Main Title: Refined, Sharp, "Submerged" -->
    <text x="0" y="0" font-family="Georgia, 'Times New Roman', serif" font-size="140" font-weight="normal" letter-spacing="-2" fill="#ffffff" opacity="0.9">BELOW THE</text>
    <text x="0" y="135" font-family="Georgia, 'Times New Roman', serif" font-size="140" font-weight="normal" letter-spacing="-2" fill="#ffffff" opacity="0.9">LAST LIGHT</text>

    <!-- Subtitle: Elegant Italic -->
    <text x="0" y="205" font-family="Georgia, 'Times New Roman', serif" font-size="32" font-style="italic" fill="#88ccdd" opacity="0.8">Life at the edge of the known world</text>

    <!-- Divider -->
    <line x1="0" y1="260" x2="1050" y2="260" stroke="#ffffff" stroke-width="1" opacity="0.15" />

    <!-- Footer Info: High Contrast, Institutional -->
    <text x="0" y="330" font-family="'Helvetica Neue', Helvetica, Arial, sans-serif" font-size="18" font-weight="bold" letter-spacing="4" fill="#ffffff" opacity="0.9">SPECIAL EXHIBITION · NOVEMBER 2–MARCH 9</text>

    <!-- Museum Name -->
    <text x="0" y="380" font-family="'Helvetica Neue', Helvetica, Arial, sans-serif" font-size="14" font-weight="normal" letter-spacing="6" fill="#668899" opacity="0.7">CALDER MUSEUM OF NATURAL HISTORY</text>
  </g>

  <!-- 5. Foreground Depth (Vignette) -->
  <rect width="1280" height="800" fill="url(#vignette-dark)" pointer-events="none" />
  <rect width="1280" height="800" fill="#000" opacity="0.15" filter="url(#noise)" pointer-events="none" />
</svg>