<svg xmlns="http://www.w3.org/2000/svg" width="1280" height="800" viewBox="0 0 1280 800">
  <defs>
    <!-- Deep rich black background gradient -->
    <radialGradient id="bgGrad" cx="50%" cy="50%" r="75%">
      <stop offset="0%" stop-color="#1a1a1a" />
      <stop offset="60%" stop-color="#050505" />
      <stop offset="100%" stop-color="#000000" />
    </radialGradient>

    <!-- Grain Filter for Texture -->
    <filter id="grain">
      <feTurbulence type="fractalNoise" baseFrequency="0.8" numOctaves="3" stitchTiles="stitch" />
      <feColorMatrix type="matrix" values="1 0 0 0 0  0 1 0 0 0  0 0 1 0 0  0 0 0 0.08 0" />
    </filter>

    <!-- Subtle drop shadow for text depth -->
    <filter id="textShadow" x="-10%" y="-10%" width="120%" height="120%">
      <feDropShadow dx="0" dy="4" stdDeviation="6" flood-color="#000000" flood-opacity="0.8" />
    </filter>

    <!-- Clip Path for Main Visual -->
    <clipPath id="centerClip">
      <rect x="0" y="0" width="1280" height="800" />
    </clipPath>
  </defs>

  <!-- Background -->
  <rect width="1280" height="800" fill="url(#bgGrad)" />

  <!-- Abstract Motion / Body Suggestion -->
  <g clip-path="url(#centerClip)">
    
    <!-- SHARP FIGURE: The "Frozen Leap" / Suspended Torso -->
    <!-- High contrast, solid white, no blur -->
    <g transform="rotate(-8, 640, 400)">
      <!-- Upper Body / Torso -->
      <path d="M550,150 C620,150 680,200 660,350 C640,500 580,650 520,750 L450,720 C500,600 560,450 570,300 C580,200 500,180 550,150 Z" fill="#ffffff" opacity="0.95"/>
      
      <!-- Dislocated Arm (Strain) -->
      <path d="M600,250 L750,200 L850,220 L840,260 L760,240 L620,320 Z" fill="#ffffff" opacity="0.9"/>
      
      <!-- Dislocated Leg (Suspension) -->
      <path d="M550,500 L700,450 L800,480 L780,530 L680,510 L560,560 Z" fill="#ffffff" opacity="0.9"/>
      
      <!-- Head (Abstracted) -->
      <circle cx="560" cy="120" r="35" fill="#ffffff" opacity="0.9"/>
    </g>

    <!-- SHARP FRAGMENTS: The "Weight" / Gravity -->
    <!-- Geometric shards falling or suspended -->
    <g fill="#ffffff">
      <!-- Shard 1 -->
      <polygon points="400,450 440,420 420,490" opacity="0.9" transform="rotate(15, 420, 450)" />
      <!-- Shard 2 -->
      <polygon points="900,350 930,320 940,380 910,390" opacity="0.8" transform="rotate(-45, 920, 360)" />
      <!-- Shard 3 -->
      <polygon points="650,650 680,630 690,670 660,690" opacity="0.7" transform="rotate(10, 670, 660)" />
      <!-- Shard 4 (Small debris) -->
      <polygon points="350,280 360,270 370,290" opacity="0.6" />
      <!-- Shard 5 -->
      <polygon points="850,600 870,580 880,620" opacity="0.5" />
    </g>

    <!-- Removed: The generic curved lines (Air/Breath) to clean up visual field -->
  </g>

  <!-- Text Layer: Title -->
  <!-- Heavier typeface, overlapping the figure for depth -->
  <g transform="translate(640, 380)">
    <!-- "THE WEIGHT" -->
    <text x="0" y="-40" 
          font-family="Impact, 'Arial Black', sans-serif" 
          font-size="130" 
          font-weight="900" 
          fill="#ffffff" 
          text-anchor="middle" 
          letter-spacing="6"
          filter="url(#textShadow)">THE WEIGHT</text>
    
    <!-- "OF AIR" -->
    <text x="0" y="80" 
          font-family="Impact, 'Arial Black', sans-serif" 
          font-size="130" 
          font-weight="900" 
          fill="#ffffff" 
          text-anchor="middle" 
          letter-spacing="12"
          opacity="0.9"
          filter="url(#textShadow)">OF AIR</text>
  </g>

  <!-- Text Layer: Subtitle -->
  <!-- Clean, legible, no haze -->
  <text x="640" y="540" 
        font-family="Helvetica, Arial, sans-serif" 
        font-size="16" 
        font-weight="400" 
        fill="#cccccc" 
        text-anchor="middle" 
        letter-spacing="6">A CONTEMPORARY MOVEMENT PERFORMANCE</text>

  <!-- Text Layer: Details (Bottom) -->
  <!-- Clean alignment, high contrast -->
  <g transform="translate(640, 740)">
    <text x="0" y="0" 
          font-family="Helvetica, Arial, sans-serif" 
          font-size="22" 
          font-weight="700" 
          fill="#ffffff" 
          text-anchor="middle" 
          letter-spacing="3">OCTOBER 18–20 · 8 PM</text>
    
    <text x="0" y="30" 
          font-family="Helvetica, Arial, sans-serif" 
          font-size="14" 
          font-weight="500" 
          fill="#888888" 
          text-anchor="middle" 
          letter-spacing="4">MERIDIAN ARTS THEATRE</text>
  </g>

  <!-- Texture Overlay (Grain) -->
  <rect width="1280" height="800" filter="url(#grain)" pointer-events="none" opacity="0.6" />

  <!-- Vignette Effect -->
  <rect width="1280" height="800" fill="none" stroke="#000" stroke-width="80" opacity="0.6" style="mix-blend-mode: multiply;" />
</svg>