<svg xmlns="http://www.w3.org/2000/svg" width="1280" height="800" viewBox="0 0 1280 800" preserveAspectRatio="xMidYMid meet">
  <defs>
    <linearGradient id="bg" x1="0" y1="0" x2="0" y2="1">
      <stop offset="0" stop-color="#F4EEE0"/>
      <stop offset="1" stop-color="#E9E1CE"/>
    </linearGradient>
    <linearGradient id="feature" x1="0" y1="0" x2="1" y2="1">
      <stop offset="0" stop-color="#2A4A47"/>
      <stop offset="1" stop-color="#16292A"/>
    </linearGradient>
    <linearGradient id="cta" x1="0" y1="0" x2="1" y2="0">
      <stop offset="0" stop-color="#BC4A24"/>
      <stop offset="1" stop-color="#96301A"/>
    </linearGradient>
    <radialGradient id="sun" cx="0.5" cy="0.5" r="0.5">
      <stop offset="0" stop-color="#E7B45C"/>
      <stop offset="1" stop-color="#C98A3C"/>
    </radialGradient>
    <pattern id="dots" width="22" height="22" patternUnits="userSpaceOnUse">
      <circle cx="2" cy="2" r="1.1" fill="#2A4A47" fill-opacity="0.18"/>
    </pattern>
    <filter id="soft" x="-30%" y="-30%" width="160%" height="160%">
      <feGaussianBlur stdDeviation="9"/>
    </filter>
    <clipPath id="featClip"><rect x="64" y="224" width="760" height="408" rx="10"/></clipPath>
  </defs>

  <rect x="0" y="0" width="1280" height="800" fill="url(#bg)"/>
  <rect x="64" y="224" width="760" height="408" fill="url(#dots)" opacity="0.5"/>

  <!-- top rule -->
  <rect x="64" y="30" width="1152" height="2" fill="#2A4A47" opacity="0.35"/>

  <!-- MASTHEAD -->
  <text x="64" y="70" font-family="Georgia, 'Times New Roman', serif" font-size="40" font-weight="700" fill="#22302F">Margin <tspan fill="#BC4A24" font-style="italic" font-weight="400">&amp;</tspan> Field</text>
  <text x="64" y="90" font-family="'Helvetica Neue', Arial, sans-serif" font-size="10" letter-spacing="3" fill="#6E6452">A LITERARY &amp; CULTURAL REVIEW · EST. 2016</text>
  <line x1="470" y1="44" x2="470" y2="92" stroke="#2A4A47" stroke-opacity="0.25" stroke-width="1"/>
  <text x="1216" y="50" text-anchor="end" font-family="Georgia, serif" font-size="13" fill="#22302F">Issue No. <tspan font-size="19" font-weight="700">12</tspan></text>
  <text x="1216" y="72" text-anchor="end" font-family="Georgia, serif" font-size="15" font-style="italic" fill="#6E6452">Autumn 2025</text>
  <text x="1216" y="92" text-anchor="end" font-family="'Helvetica Neue', Arial, sans-serif" font-size="10" letter-spacing="2" fill="#6E6452">marginandfield.press</text>

  <!-- THEME BAND -->
  <rect x="64" y="112" width="1152" height="1" fill="#2A4A47" opacity="0.25"/>
  <text x="64" y="160" font-family="Georgia, serif" font-size="34" font-style="italic" fill="#22302F">The Shape of Distance</text>
  <text x="64" y="184" font-family="'Helvetica Neue', Arial, sans-serif" font-size="11" letter-spacing="2" fill="#6E6452">ESSAYS · FICTION · POETRY · CRITICISM — ON GAPS, HORIZONS &amp; THE SPACE BETWEEN</text>
  <text x="1216" y="160" text-anchor="end" font-family="Georgia, serif" font-size="12" fill="#6E6452">Twelve stories, one horizon</text>
  <rect x="64" y="196" width="1152" height="2" fill="#2A4A47" opacity="0.3"/>

  <!-- FEATURE ART -->
  <g clip-path="url(#featClip)">
    <rect x="64" y="224" width="760" height="408" fill="url(#feature)"/>
    <ellipse cx="250" cy="500" rx="240" ry="90" fill="#0E1B1C" opacity="0.45" filter="url(#soft)"/>
    <!-- Repositioned and faded orange circle (Change 2) -->
    <circle cx="760" cy="310" r="85" fill="url(#sun)" opacity="0.15"/>
    <g stroke="#F1E9D6" stroke-opacity="0.10" stroke-width="1.4" fill="none">
      <path d="M64,468 C300,438 520,498 824,452"/>
      <path d="M64,500 C300,472 520,530 824,486"/>
      <path d="M64,534 C300,508 520,562 824,520"/>
      <path d="M64,568 C300,544 520,594 824,552"/>
    </g>
    <g stroke="#E7B45C" stroke-opacity="0.5" stroke-width="1.2">
      <line x1="64" y1="420" x2="824" y2="420"/>
      <line x1="64" y1="452" x2="824" y2="452"/>
      <line x1="64" y1="486" x2="824" y2="486"/>
      <line x1="64" y1="520" x2="824" y2="520"/>
      <line x1="64" y1="552" x2="824" y2="552"/>
    </g>
    <g stroke="#F1E9D6" stroke-opacity="0.4" stroke-width="1.4">
      <line x1="360" y1="420" x2="360" y2="452"/>
      <line x1="470" y1="452" x2="470" y2="486"/>
      <line x1="580" y1="486" x2="580" y2="520"/>
      <line x1="690" y1="520" x2="690" y2="552"/>
    </g>
    <circle cx="360" cy="436" r="3.5" fill="#E7B45C"/>
    <circle cx="470" cy="469" r="3.5" fill="#E7B45C"/>
    <circle cx="580" cy="503" r="3.5" fill="#E7B45C"/>
    <circle cx="690" cy="536" r="3.5" fill="#E7B45C"/>
    <circle cx="150" cy="300" r="2.4" fill="#F1E9D6" opacity="0.85"/>
    <circle cx="230" cy="330" r="1.8" fill="#F1E9D6" opacity="0.7"/>
    <circle cx="420" cy="280" r="2.2" fill="#F1E9D6" opacity="0.8"/>
    <circle cx="520" cy="320" r="1.6" fill="#F1E9D6" opacity="0.65"/>
    <circle cx="720" cy="290" r="2" fill="#F1E9D6" opacity="0.75"/>
    <circle cx="760" cy="470" r="2" fill="#F1E9D6" opacity="0.6"/>
    <circle cx="120" cy="360" r="1.6" fill="#F1E9D6" opacity="0.6"/>
  </g>

  <!-- FEATURE TEXT (Change 1: High-contrast off-white) -->
  <rect x="64" y="224" width="5" height="26" fill="#BC4A24"/>
  <text x="80" y="244" font-family="'Helvetica Neue', Arial, sans-serif" font-size="11" font-weight="700" letter-spacing="3" fill="#BC4A24">FEATURE</text>
  <text x="80" y="286" font-family="Georgia, serif" font-size="40" font-weight="700" fill="#F5F5F0">The Cartography of Leaving</text>
  <text x="80" y="316" font-family="'Helvetica Neue', Arial, sans-serif" font-size="13" fill="#C9BFA8">By <tspan font-family="Georgia, serif" font-style="italic" fill="#F5F5F0">Amara Osei</tspan>  ·  Essay</text>
  <text x="80" y="352" font-family="Georgia, serif" font-size="17" font-style="italic" fill="#F5F5F0">When a country becomes a sentence you can no longer</text>
  <text x="80" y="378" font-family="Georgia, serif" font-size="17" font-style="italic" fill="#F5F5F0">finish, what does it mean to carry its punctuation</text>
  <text x="80" y="404" font-family="Georgia, serif" font-size="17" font-style="italic" fill="#F5F5F0">across the water? On exile, maps, and the slow</text>
  <text x="80" y="430" font-family="Georgia, serif" font-size="17" font-style="italic" fill="#F5F5F0">grief of a distance that never closes.</text>
  <text x="80" y="470" font-family="'Helvetica Neue', Arial, sans-serif" font-size="12" fill="#C9BFA8">18 min read · 4,200 words</text>
  <text x="80" y="520" font-family="Georgia, serif" font-size="17" font-weight="700" fill="#BC4A24">Read the feature →</text>

  <!-- RIGHT COLUMN: CONTAINS (Change 3: Expanded to 4 items) -->
  <rect x="860" y="224" width="356" height="240" fill="#FBF7EC" stroke="#2A4A47" stroke-opacity="0.16" stroke-width="1"/>
  <rect x="860" y="224" width="356" height="4" fill="#BC4A24"/>
  <text x="884" y="252" font-family="Georgia, serif" font-size="18" font-weight="700" fill="#22302F">In this issue</text>
  <text x="884" y="270" font-family="'Helvetica Neue', Arial, sans-serif" font-size="10" letter-spacing="2" fill="#8A8069">CONTENTS · ISSUE 12</text>
  <line x1="884" y1="282" x2="1192" y2="282" stroke="#2A4A47" stroke-opacity="0.14"/>
  
  <!-- Item 1 -->
  <text x="884" y="304" font-family="'Helvetica Neue', Arial, sans-serif" font-size="9" font-weight="700" letter-spacing="2" fill="#BC4A24">FEATURE</text>
  <text x="884" y="320" font-family="Georgia, serif" font-size="13" fill="#22302F">The Cartography of Leaving</text>
  <text x="884" y="336" font-family="'Helvetica Neue', Arial, sans-serif" font-size="10" fill="#8A8069">Amara Osei</text>
  <line x1="884" y1="346" x2="1192" y2="346" stroke="#2A4A47" stroke-opacity="0.1"/>
  
  <!-- Item 2 -->
  <text x="884" y="364" font-family="'Helvetica Neue', Arial, sans-serif" font-size="9" font-weight="700" letter-spacing="2" fill="#8A8069">FICTION</text>
  <text x="884" y="380" font-family="Georgia, serif" font-size="12" fill="#3A352C">Letters to a Vanishing Shore</text>
  <text x="1192" y="380" text-anchor="end" font-family="Georgia, serif" font-size="11" fill="#8A8069">09</text>
  <line x1="884" y1="390" x2="1192" y2="390" stroke="#2A4A47" stroke-opacity="0.1"/>
  
  <!-- Item 3 -->
  <text x="884" y="408" font-family="'Helvetica Neue', Arial, sans-serif" font-size="9" font-weight="700" letter-spacing="2" fill="#8A8069">POETRY</text>
  <text x="884" y="424" font-family="Georgia, serif" font-size="12" fill="#3A352C">The Meridian Sequence</text>
  <text x="1192" y="424" text-anchor="end" font-family="Georgia, serif" font-size="11" fill="#8A8069">14</text>
  <line x1="884" y1="434" x2="1192" y2="434" stroke="#2A4A47" stroke-opacity="0.1"/>
  
  <!-- Item 4 (Added) -->
  <text x="884" y="452" font-family="'Helvetica Neue', Arial, sans-serif" font-size="9" font-weight="700" letter-spacing="2" fill="#8A8069">CULTURE</text>
  <text x="884" y="468" font-family="Georgia, serif" font-size="12" fill="#3A352C">The Long Way Home</text>
  <text x="1192" y="468" text-anchor="end" font-family="Georgia, serif" font-size="11" fill="#8A8069">22</text>

  <!-- RIGHT COLUMN: SUBSCRIBE -->
  <rect x="860" y="480" width="356" height="152" fill="#22302F"/>
  <text x="884" y="510" font-family="Georgia, serif" font-size="19" font-weight="700" fill="#F1E9D6">Never miss an issue.</text>
  <text x="884" y="534" font-family="'Helvetica Neue', Arial, sans-serif" font-size="12" fill="#C9BFA8">Four times a year, new essays, fiction</text>
  <text x="884" y="552" font-family="'Helvetica Neue', Arial, sans-serif" font-size="12" fill="#C9BFA8">and poetry delivered to your inbox.</text>
  <rect x="884" y="570" width="172" height="40" rx="6" fill="#E7B45C"/>
  <text x="970" y="595" text-anchor="middle" font-family="'Helvetica Neue', Arial, sans-serif" font-size="13" font-weight="700" fill="#22302F">Subscribe — $40/yr</text>

  <!-- SECONDARY ARTICLES (Change 3 & 4: Excerpts added, Typography varied) -->
  <!-- 1: Fiction -->
  <rect x="64" y="656" width="272" height="118" fill="#FBF7EC" stroke="#2A4A47" stroke-opacity="0.16" stroke-width="1"/>
  <rect x="64" y="656" width="5" height="118" fill="#BC4A24"/>
  <text x="84" y="682" font-family="'Helvetica Neue', Arial, sans-serif" font-size="9" font-weight="700" letter-spacing="2" fill="#BC4A24">FICTION</text>
  <text x="84" y="708" font-family="Georgia, serif" font-size="18" font-weight="700" fill="#22302F">Letters to a</text>
  <text x="84" y="728" font-family="Georgia, serif" font-size="18" font-weight="700" fill="#22302F">Vanishing Shore</text>
  <text x="84" y="744" font-family="Georgia, serif" font-size="11" font-style="italic" fill="#5A5142">A story of fading coastal memories.</text>
  <text x="84" y="762" font-family="'Helvetica Neue', Arial, sans-serif" font-size="10" fill="#5A5142">By <tspan font-family="Georgia, serif" font-style="italic">Dmitri Vane</tspan></text>

  <!-- 2: Poetry (Italic title) -->
  <rect x="352" y="656" width="272" height="118" fill="#FBF7EC" stroke="#2A4A47" stroke-opacity="0.16" stroke-width="1"/>
  <rect x="352" y="656" width="5" height="118" fill="#2A4A47"/>
  <text x="372" y="682" font-family="'Helvetica Neue', Arial, sans-serif" font-size="9" font-weight="700" letter-spacing="2" fill="#2A4A47">POETRY</text>
  <text x="372" y="712" font-family="Georgia, serif" font-size="19" font-weight="700" font-style="italic" fill="#22302F">The Meridian Sequence</text>
  <text x="372" y="744" font-family="Georgia, serif" font-size="11" font-style="italic" fill="#5A5142">Poems mapping the edges of longing.</text>
  <text x="372" y="762" font-family="'Helvetica Neue', Arial, sans-serif" font-size="10" fill="#5A5142">By <tspan font-family="Georgia, serif" font-style="italic">Yara Haddad</tspan></text>

  <!-- 3: Criticism (Lighter background tint) -->
  <rect x="640" y="656" width="272" height="118" fill="#F4F0E4" stroke="#2A4A47" stroke-opacity="0.16" stroke-width="1"/>
  <rect x="640" y="656" width="5" height="118" fill="#BC4A24"/>
  <text x="660" y="682" font-family="'Helvetica Neue', Arial, sans-serif" font-size="9" font-weight="700" letter-spacing="2" fill="#BC4A24">CRITICISM</text>
  <text x="660" y="712" font-family="Georgia, serif" font-size="19" font-weight="700" fill="#22302F">Reading the Horizon</text>
  <text x="660" y="744" font-family="Georgia, serif" font-size="11" font-style="italic" fill="#5A5142">On the aesthetics of distant landscapes.</text>
  <text x="660" y="762" font-family="'Helvetica Neue', Arial, sans-serif" font-size="10" fill="#5A5142">By <tspan font-family="Georgia, serif" font-style="italic">Prof. Elena Ruiz</tspan></text>

  <!-- 4: Culture (Added to sidebar, italic excerpt) -->
  <rect x="928" y="656" width="288" height="118" fill="#FBF7EC" stroke="#2A4A47" stroke-opacity="0.16" stroke-width="1"/>
  <rect x="928" y="656" width="5" height="118" fill="#2A4A47"/>
  <text x="948" y="682" font-family="'Helvetica Neue', Arial, sans-serif" font-size="9" font-weight="700" letter-spacing="2" fill="#2A4A47">CULTURE</text>
  <text x="948" y="712" font-family="Georgia, serif" font-size="19" font-weight="700" fill="#22302F">The Long Way Home</text>
  <text x="948" y="744" font-family="Georgia, serif" font-size="11" font-style="italic" fill="#5A5142">Cultural essays on return and belonging.</text>
  <text x="948" y="762" font-family="'Helvetica Neue', Arial, sans-serif" font-size="10" fill="#5A5142">By <tspan font-family="Georgia, serif" font-style="italic">Samuel Adebayo</tspan></text>

  <!-- FOOTER -->
  <rect x="64" y="782" width="1152" height="1" fill="#2A4A47" opacity="0.25"/>
  <text x="64" y="796" font-family="'Helvetica Neue', Arial, sans-serif" font-size="9" letter-spacing="1" fill="#8A8069">MARGIN &amp; FIELD · ISSUE 12 · © 2025</text>
  <text x="1216" y="796" text-anchor="end" font-family="'Helvetica Neue', Arial, sans-serif" font-size="9" letter-spacing="1" fill="#8A8069">PRINTED ON PAPER THAT OUTLASTS US</text>
</svg>