<svg xmlns="http://www.w3.org/2000/svg" width="1280" height="800" viewBox="0 0 1280 800">
  <defs>
    <!-- Afterglow Sunset Background -->
    <linearGradient id="bg" x1="0" y1="0" x2="0" y2="1">
      <stop offset="0%" stop-color="#150f2e"/>
      <stop offset="35%" stop-color="#2d1b4e"/>
      <stop offset="65%" stop-color="#7a2543"/>
      <stop offset="85%" stop-color="#b84a2b"/>
      <stop offset="100%" stop-color="#ff8a3d"/>
    </linearGradient>

    <!-- Stage Colors -->
    <linearGradient id="gradSolstice" x1="0" y1="0" x2="0" y2="1">
      <stop offset="0%" stop-color="#ffe066"/>
      <stop offset="100%" stop-color="#ffb703"/>
    </linearGradient>
    <linearGradient id="gradAurora" x1="0" y1="0" x2="0" y2="1">
      <stop offset="0%" stop-color="#ff99cc"/>
      <stop offset="100%" stop-color="#ff5fa2"/>
    </linearGradient>
    <linearGradient id="gradMeridian" x1="0" y1="0" x2="0" y2="1">
      <stop offset="0%" stop-color="#80ffea"/>
      <stop offset="100%" stop-color="#22e0c8"/>
    </linearGradient>

    <!-- Headliner Gold -->
    <linearGradient id="gold" x1="0" y1="0" x2="1" y2="1">
      <stop offset="0%" stop-color="#fff2c4"/>
      <stop offset="45%" stop-color="#ffc84d"/>
      <stop offset="100%" stop-color="#ff8f3c"/>
    </linearGradient>

    <!-- CTA Gradient -->
    <linearGradient id="cta" x1="0" y1="0" x2="1" y2="0">
      <stop offset="0%" stop-color="#ff8a3d"/>
      <stop offset="50%" stop-color="#ff5fa2"/>
      <stop offset="100%" stop-color="#c64bff"/>
    </linearGradient>

    <!-- Card Backgrounds (Pulse) -->
    <linearGradient id="cardLight" x1="0" y1="0" x2="0" y2="1">
      <stop offset="0%" stop-color="#ffffff" stop-opacity="0.08"/>
      <stop offset="100%" stop-color="#ffffff" stop-opacity="0.03"/>
    </linearGradient>
    <linearGradient id="cardDark" x1="0" y1="0" x2="0" y2="1">
      <stop offset="0%" stop-color="#ffffff" stop-opacity="0.03"/>
      <stop offset="100%" stop-color="#ffffff" stop-opacity="0.01"/>
    </linearGradient>

    <!-- Filters -->
    <filter id="soft" x="-50%" y="-50%" width="200%" height="200%">
      <feGaussianBlur stdDeviation="24"/>
    </filter>
    <filter id="cardShadow" x="-30%" y="-30%" width="160%" height="160%">
      <feDropShadow dx="0" dy="4" stdDeviation="8" flood-color="#000000" flood-opacity="0.4"/>
    </filter>
    <filter id="ctaShadow" x="-30%" y="-30%" width="160%" height="160%">
      <feDropShadow dx="0" dy="6" stdDeviation="12" flood-color="#ff5fa2" flood-opacity="0.6"/>
    </filter>

    <!-- Textures -->
    <pattern id="grid" width="40" height="40" patternUnits="userSpaceOnUse">
      <path d="M40 0H0V40" fill="none" stroke="#ffffff" stroke-opacity="0.03" stroke-width="1"/>
    </pattern>
  </defs>

  <!-- Background Layer -->
  <rect width="1280" height="800" fill="url(#bg)"/>
  <rect width="1280" height="800" fill="url(#grid)"/>

  <!-- Ambient Glows -->
  <circle cx="100" cy="100" r="300" fill="#ff5fa2" opacity="0.15" filter="url(#soft)"/>
  <circle cx="1180" cy="200" r="350" fill="#22e0c8" opacity="0.12" filter="url(#soft)"/>
  <circle cx="640" cy="700" r="400" fill="#ffb703" opacity="0.1" filter="url(#soft)"/>

  <!-- Rhythm Dots -->
  <g opacity="0.6">
    <circle cx="50" cy="300" r="2" fill="#ffd23f"/>
    <circle cx="1230" cy="350" r="2.5" fill="#ff5fa2"/>
    <circle cx="80" cy="550" r="1.5" fill="#22e0c8"/>
    <circle cx="1200" cy="600" r="2" fill="#ffd23f"/>
  </g>

  <!-- Header Section -->
  <g transform="translate(64, 50)">
    <!-- Title with Chromatic Aberration Effect -->
    <text x="2" y="2" font-family="Arial, sans-serif" font-weight="900" font-size="56" fill="#ff5fa2" opacity="0.6" letter-spacing="1">AFTERGLOW</text>
    <text x="-2" y="2" font-family="Arial, sans-serif" font-weight="900" font-size="56" fill="#22e0c8" opacity="0.6" letter-spacing="1">AFTERGLOW</text>
    <text x="0" y="0" font-family="Arial, sans-serif" font-weight="900" font-size="56" fill="#ffffff" letter-spacing="1">AFTERGLOW <tspan fill="url(#gold)">FESTIVAL</tspan></text>

    <!-- Tagline -->
    <text x="2" y="24" font-family="Arial, sans-serif" font-size="12" font-weight="700" letter-spacing="4" fill="#e0d5f5">ONE NIGHT OF LIGHT, SOUND &amp; AFTERGLOW</text>

    <!-- Meta Chips -->
    <g transform="translate(0, 42)">
      <rect width="220" height="32" rx="16" fill="#000000" fill-opacity="0.3" stroke="#ffffff" stroke-opacity="0.15"/>
      <circle cx="16" cy="16" r="4" fill="#ffd23f"/>
      <text x="30" y="20" font-family="Arial, sans-serif" font-size="12" font-weight="700" fill="#ffffff">SATURDAY · JUNE 21 · 2025</text>

      <rect x="236" width="220" height="32" rx="16" fill="#000000" fill-opacity="0.3" stroke="#ffffff" stroke-opacity="0.15"/>
      <circle cx="252" cy="16" r="4" fill="#ff5fa2"/>
      <text x="266" y="20" font-family="Arial, sans-serif" font-size="12" font-weight="700" fill="#ffffff">SUNSET PARK · AUSTIN, TX</text>
    </g>

    <!-- Header CTA -->
    <g transform="translate(868, 32)" filter="url(#ctaShadow)">
      <rect width="184" height="44" rx="22" fill="url(#cta)"/>
      <text x="92" y="27" font-family="Arial, sans-serif" font-size="14" font-weight="900" text-anchor="middle" fill="#2a0f24" letter-spacing="1">GET TICKETS →</text>
    </g>
  </g>

  <!-- Stage Legend (Refined & Centered) -->
  <g transform="translate(64, 145)">
    <rect width="1152" height="44" rx="22" fill="#ffffff" fill-opacity="0.05" stroke="#ffffff" stroke-opacity="0.1"/>
    
    <!-- Solstice Legend -->
    <g transform="translate(40, 22)">
      <circle cx="0" cy="0" r="5" fill="url(#gradSolstice)"/>
      <text x="14" y="4" font-family="Arial, sans-serif" font-size="13" font-weight="700" fill="#ffffff">SOLSTICE <tspan font-size="11" font-weight="400" fill="#d0c5e5">· Main Stage</tspan></text>
    </g>

    <!-- Aurora Legend -->
    <g transform="translate(320, 22)">
      <circle cx="0" cy="0" r="5" fill="url(#gradAurora)"/>
      <text x="14" y="4" font-family="Arial, sans-serif" font-size="13" font-weight="700" fill="#ffffff">AURORA <tspan font-size="11" font-weight="400" fill="#d0c5e5">· Indoor Hall</tspan></text>
    </g>

    <!-- Meridian Legend -->
    <g transform="translate(600, 22)">
      <circle cx="0" cy="0" r="5" fill="url(#gradMeridian)"/>
      <text x="14" y="4" font-family="Arial, sans-serif" font-size="13" font-weight="700" fill="#ffffff">MERIDIAN <tspan font-size="11" font-weight="400" fill="#d0c5e5">· Garden Stage</tspan></text>
    </g>

    <!-- Headliner Legend -->
    <g transform="translate(920, 22)">
      <path d="M0 -6 L1.5 -1.5 L6 -1.5 L2.5 1.5 L3.5 6 L0 3 L-3.5 6 L-2.5 1.5 L-6 -1.5 L-1.5 -1.5 Z" fill="url(#gold)"/>
      <text x="14" y="4" font-family="Arial, sans-serif" font-size="13" font-weight="700" fill="url(#gold)">HEADLINER · CLOSER</text>
    </g>
  </g>

  <!-- Schedule Grid Area -->
  <g transform="translate(64, 210)">
    <!-- Grid Background -->
    <rect width="1152" height="480" rx="20" fill="#000000" fill-opacity="0.25" stroke="#ffffff" stroke-opacity="0.1"/>

    <!-- Vertical Column Guides -->
    <line x1="140" y1="0" x2="140" y2="480" stroke="#ffffff" stroke-opacity="0.05" stroke-width="2"/>
    <line x1="440" y1="0" x2="440" y2="480" stroke="#ffffff" stroke-opacity="0.05" stroke-width="2"/>
    <line x1="740" y1="0" x2="740" y2="480" stroke="#ffffff" stroke-opacity="0.05" stroke-width="2"/>
    <line x1="1040" y1="0" x2="1040" y2="480" stroke="#ffffff" stroke-opacity="0.05" stroke-width="2"/>

    <!-- Horizontal Time Lines & Labels -->
    <!-- 4:00 -->
    <line x1="0" y1="50" x2="1152" y2="50" stroke="#ffffff" stroke-opacity="0.1"/>
    <text x="120" y="54" font-family="Arial, sans-serif" font-size="12" font-weight="700" text-anchor="end" fill="#e0d5f5">4:00</text>
    <circle cx="130" cy="50" r="3" fill="#ffffff" opacity="0.5"/>

    <!-- 5:00 -->
    <line x1="0" y1="110" x2="1152" y2="110" stroke="#ffffff" stroke-opacity="0.1"/>
    <text x="120" y="114" font-family="Arial, sans-serif" font-size="12" font-weight="700" text-anchor="end" fill="#e0d5f5">5:00</text>
    <circle cx="130" cy="110" r="3" fill="#ffffff" opacity="0.5"/>

    <!-- 6:00 -->
    <line x1="0" y1="170" x2="1152" y2="170" stroke="#ffffff" stroke-opacity="0.1"/>
    <text x="120" y="174" font-family="Arial, sans-serif" font-size="12" font-weight="700" text-anchor="end" fill="#e0d5f5">6:00</text>
    <circle cx="130" cy="170" r="3" fill="#ffffff" opacity="0.5"/>

    <!-- 7:00 -->
    <line x1="0" y1="230" x2="1152" y2="230" stroke="#ffffff" stroke-opacity="0.1"/>
    <text x="120" y="234" font-family="Arial, sans-serif" font-size="12" font-weight="700" text-anchor="end" fill="#e0d5f5">7:00</text>
    <circle cx="130" cy="230" r="3" fill="#ffffff" opacity="0.5"/>

    <!-- 8:00 -->
    <line x1="0" y1="290" x2="1152" y2="290" stroke="#ffffff" stroke-opacity="0.1"/>
    <text x="120" y="294" font-family="Arial, sans-serif" font-size="12" font-weight="700" text-anchor="end" fill="#e0d5f5">8:00</text>
    <circle cx="130" cy="290" r="3" fill="#ffffff" opacity="0.5"/>

    <!-- 9:00 -->
    <line x1="0" y1="350" x2="1152" y2="350" stroke="#ffffff" stroke-opacity="0.1"/>
    <text x="120" y="354" font-family="Arial, sans-serif" font-size="12" font-weight="700" text-anchor="end" fill="#e0d5f5">9:00</text>
    <circle cx="130" cy="350" r="3" fill="#ffffff" opacity="0.5"/>

    <!-- 10:00 -->
    <line x1="0" y1="410" x2="1152" y2="410" stroke="#ffffff" stroke-opacity="0.1"/>
    <text x="120" y="414" font-family="Arial, sans-serif" font-size="12" font-weight="700" text-anchor="end" fill="#e0d5f5">10:00</text>
    <circle cx="130" cy="410" r="3" fill="#ffffff" opacity="0.5"/>

    <!-- 11:00 -->
    <line x1="0" y1="470" x2="1152" y2="470" stroke="#ffffff" stroke-opacity="0.1"/>
    <text x="120" y="474" font-family="Arial, sans-serif" font-size="12" font-weight="700" text-anchor="end" fill="#e0d5f5">11:00</text>
    <circle cx="130" cy="470" r="3" fill="#ffffff" opacity="0.5"/>

    <!-- ===== EVENTS ===== -->

    <!-- 4:00 PM -->
    <!-- Solstice -->
    <g transform="translate(150, 8)">
      <rect width="280" height="44" rx="8" fill="url(#cardLight)" filter="url(#cardShadow)"/>
      <rect x="0" y="8" width="4" height="28" rx="2" fill="url(#gradSolstice)"/>
      <circle cx="16" cy="22" r="3" fill="#ffd23f"/>
      <text x="28" y="19" font-family="Arial, sans-serif" font-size="16" font-weight="800" fill="#ffffff">Neon Tide</text>
      <text x="28" y="35" font-family="Arial, sans-serif" font-size="10" font-weight="600" fill="#b0a5c5" letter-spacing="0.5">SYNTH-POP</text>
    </g>
    <!-- Aurora -->
    <g transform="translate(450, 8)">
      <rect width="280" height="44" rx="8" fill="url(#cardLight)" filter="url(#cardShadow)"/>
      <rect x="0" y="8" width="4" height="28" rx="2" fill="url(#gradAurora)"/>
      <circle cx="16" cy="22" r="3" fill="#ff5fa2"/>
      <text x="28" y="19" font-family="Arial, sans-serif" font-size="16" font-weight="800" fill="#ffffff">Glasshouse</text>
      <text x="28" y="35" font-family="Arial, sans-serif" font-size="10" font-weight="600" fill="#b0a5c5" letter-spacing="0.5">DREAM POP</text>
    </g>
    <!-- Meridian -->
    <g transform="translate(750, 8)">
      <rect width="280" height="44" rx="8" fill="url(#cardLight)" filter="url(#cardShadow)"/>
      <rect x="0" y="8" width="4" height="28" rx="2" fill="url(#gradMeridian)"/>
      <circle cx="16" cy="22" r="3" fill="#22e0c8"/>
      <text x="28" y="19" font-family="Arial, sans-serif" font-size="16" font-weight="800" fill="#ffffff">Kite Theory</text>
      <text x="28" y="35" font-family="Arial, sans-serif" font-size="10" font-weight="600" fill="#b0a5c5" letter-spacing="0.5">FOLK</text>
    </g>

    <!-- 5:00 PM -->
    <!-- Solstice -->
    <g transform="translate(150, 68)">
      <rect width="280" height="44" rx="8" fill="url(#cardDark)" filter="url(#cardShadow)"/>
      <rect x="0" y="8" width="4" height="28" rx="2" fill="url(#gradSolstice)"/>
      <circle cx="16" cy="22" r="3" fill="#ffd23f"/>
      <text x="28" y="19" font-family="Arial, sans-serif" font-size="16" font-weight="800" fill="#ffffff">Velvet Static</text>
      <text x="28" y="35" font-family="Arial, sans-serif" font-size="10" font-weight="600" fill="#b0a5c5" letter-spacing="0.5">INDIE ROCK</text>
    </g>
    <!-- Aurora -->
    <g transform="translate(450, 68)">
      <rect width="280" height="44" rx="8" fill="url(#cardDark)" filter="url(#cardShadow)"/>
      <rect x="0" y="8" width="4" height="28" rx="2" fill="url(#gradAurora)"/>
      <circle cx="16" cy="22" r="3" fill="#ff5fa2"/>
      <text x="28" y="19" font-family="Arial, sans-serif" font-size="16" font-weight="800" fill="#ffffff">Nova Bloom</text>
      <text x="28" y="35" font-family="Arial, sans-serif" font-size="10" font-weight="600" fill="#b0a5c5" letter-spacing="0.5">ELECTRO-POP</text>
    </g>
    <!-- Meridian -->
    <g transform="translate(750, 68)">
      <rect width="280" height="44" rx="8" fill="url(#cardDark)" filter="url(#cardShadow)"/>
      <rect x="0" y="8" width="4" height="28" rx="2" fill="url(#gradMeridian)"/>
      <circle cx="16" cy="22" r="3" fill="#22e0c8"/>
      <text x="28" y="19" font-family="Arial, sans-serif" font-size="16" font-weight="800" fill="#ffffff">Copper Sky</text>
      <text x="28" y="35" font-family="Arial, sans-serif" font-size="10" font-weight="600" fill="#b0a5c5" letter-spacing="0.5">AMERICANA</text>
    </g>

    <!-- 6:00 PM -->
    <!-- Solstice -->
    <g transform="translate(150, 128)">
      <rect width="280" height="44" rx="8" fill="url(#cardLight)" filter="url(#cardShadow)"/>
      <rect x="0" y="8" width="4" height="28" rx="2" fill="url(#gradSolstice)"/>
      <circle cx="16" cy="22" r="3" fill="#ffd23f"/>
      <text x="28" y="19" font-family="Arial, sans-serif" font-size="16" font-weight="800" fill="#ffffff">Midnight Parade</text>
      <text x="28" y="35" font-family="Arial, sans-serif" font-size="10" font-weight="600" fill="#b0a5c5" letter-spacing="0.5">DISCO</text>
    </g>
    <!-- Aurora -->
    <g transform="translate(450, 128)">
      <rect width="280" height="44" rx="8" fill="url(#cardLight)" filter="url(#cardShadow)"/>
      <rect x="0" y="8" width="4" height="28" rx="2" fill="url(#gradAurora)"/>
      <circle cx="16" cy="22" r="3" fill="#ff5fa2"/>
      <text x="28" y="19" font-family="Arial, sans-serif" font-size="16" font-weight="800" fill="#ffffff">Hollow Suns</text>
      <text x="28" y="35" font-family="Arial, sans-serif" font-size="10" font-weight="600" fill="#b0a5c5" letter-spacing="0.5">ALT-R&amp;B</text>
    </g>
    <!-- Meridian -->
    <g transform="translate(750, 128)">
      <rect width="280" height="44" rx="8" fill="url(#cardLight)" filter="url(#cardShadow)"/>
      <rect x="0" y="8" width="4" height="28" rx="2" fill="url(#gradMeridian)"/>
      <circle cx="16" cy="22" r="3" fill="#22e0c8"/>
      <text x="28" y="19" font-family="Arial, sans-serif" font-size="16" font-weight="800" fill="#ffffff">The Lanterns</text>
      <text x="28" y="35" font-family="Arial, sans-serif" font-size="10" font-weight="600" fill="#b0a5c5" letter-spacing="0.5">INDIE FOLK</text>
    </g>

    <!-- 7:00 PM -->
    <!-- Solstice -->
    <g transform="translate(150, 188)">
      <rect width="280" height="44" rx="8" fill="url(#cardDark)" filter="url(#cardShadow)"/>
      <rect x="0" y="8" width="4" height="28" rx="2" fill="url(#gradSolstice)"/>
      <circle cx="16" cy="22" r="3" fill="#ffd23f"/>
      <text x="28" y="19" font-family="Arial, sans-serif" font-size="16" font-weight="800" fill="#ffffff">Saffron</text>
      <text x="28" y="35" font-family="Arial, sans-serif" font-size="10" font-weight="600" fill="#b0a5c5" letter-spacing="0.5">PSYCHEDELIC</text>
    </g>
    <!-- Aurora -->
    <g transform="translate(450, 188)">
      <rect width="280" height="44" rx="8" fill="url(#cardDark)" filter="url(#cardShadow)"/>
      <rect x="0" y="8" width="4" height="28" rx="2" fill="url(#gradAurora)"/>
      <circle cx="16" cy="22" r="3" fill="#ff5fa2"/>
      <text x="28" y="19" font-family="Arial, sans-serif" font-size="16" font-weight="800" fill="#ffffff">Luma</text>
      <text x="28" y="35" font-family="Arial, sans-serif" font-size="10" font-weight="600" fill="#b0a5c5" letter-spacing="0.5">HOUSE</text>
    </g>
    <!-- Meridian -->
    <g transform="translate(750, 188)">
      <rect width="280" height="44" rx="8" fill="url(#cardDark)" filter="url(#cardShadow)"/>
      <rect x="0" y="8" width="4" height="28" rx="2" fill="url(#gradMeridian)"/>
      <circle cx="16" cy="22" r="3" fill="#22e0c8"/>
      <text x="28" y="19" font-family="Arial, sans-serif" font-size="16" font-weight="800" fill="#ffffff">Juniper Moon</text>
      <text x="28" y="35" font-family="Arial, sans-serif" font-size="10" font-weight="600" fill="#b0a5c5" letter-spacing="0.5">ROOTS</text>
    </g>

    <!-- 8:00 PM -->
    <!-- Solstice -->
    <g transform="translate(150, 248)">
      <rect width="280" height="44" rx="8" fill="url(#cardLight)" filter="url(#cardShadow)"/>
      <rect x="0" y="8" width="4" height="28" rx="2" fill="url(#gradSolstice)"/>
      <circle cx="16" cy="22" r="3" fill="#ffd23f"/>
      <text x="28" y="19" font-family="Arial, sans-serif" font-size="16" font-weight="800" fill="#ffffff">Pulse &amp; Echo</text>
      <text x="28" y="35" font-family="Arial, sans-serif" font-size="10" font-weight="600" fill="#b0a5c5" letter-spacing="0.5">ELECTRONICA</text>
    </g>
    <!-- Aurora -->
    <g transform="translate(450, 248)">
      <rect width="280" height="44" rx="8" fill="url(#cardLight)" filter="url(#cardShadow)"/>
      <rect x="0" y="8" width="4" height="28" rx="2" fill="url(#gradAurora)"/>
      <circle cx="16" cy="22" r="3" fill="#ff5fa2"/>
      <text x="28" y="19" font-family="Arial, sans-serif" font-size="16" font-weight="800" fill="#ffffff">Riot Bloom</text>
      <text x="28" y="35" font-family="Arial, sans-serif" font-size="10" font-weight="600" fill="#b0a5c5" letter-spacing="0.5">PUNK</text>
    </g>
    <!-- Meridian -->
    <g transform="translate(750, 248)">
      <rect width="280" height="44" rx="8" fill="url(#cardLight)" filter="url(#cardShadow)"/>
      <rect x="0" y="8" width="4" height="28" rx="2" fill="url(#gradMeridian)"/>
      <circle cx="16" cy="22" r="3" fill="#22e0c8"/>
      <text x="28" y="19" font-family="Arial, sans-serif" font-size="16" font-weight="800" fill="#ffffff">Driftwood</text>
      <text x="28" y="35" font-family="Arial, sans-serif" font-size="10" font-weight="600" fill="#b0a5c5" letter-spacing="0.5">ACOUSTIC</text>
    </g>

    <!-- 9:00 PM -->
    <!-- Solstice -->
    <g transform="translate(150, 308)">
      <rect width="280" height="44" rx="8" fill="url(#cardDark)" filter="url(#cardShadow)"/>
      <rect x="0" y="8" width="4" height="28" rx="2" fill="url(#gradSolstice)"/>
      <circle cx="16" cy="22" r="3" fill="#ffd23f"/>
      <text x="28" y="19" font-family="Arial, sans-serif" font-size="16" font-weight="800" fill="#ffffff">Coral &amp; Vine</text>
      <text x="28" y="35" font-family="Arial, sans-serif" font-size="10" font-weight="600" fill="#b0a5c5" letter-spacing="0.5">SULTRY SOUL</text>
    </g>
    <!-- Aurora -->
    <g transform="translate(450, 308)">
      <rect width="280" height="44" rx="8" fill="url(#cardDark)" filter="url(#cardShadow)"/>
      <rect x="0" y="8" width="4" height="28" rx="2" fill="url(#gradAurora)"/>
      <circle cx="16" cy="22" r="3" fill="#ff5fa2"/>
      <text x="28" y="19" font-family="Arial, sans-serif" font-size="16" font-weight="800" fill="#ffffff">Static Bloom</text>
      <text x="28" y="35" font-family="Arial, sans-serif" font-size="10" font-weight="600" fill="#b0a5c5" letter-spacing="0.5">GARAGE ROCK</text>
    </g>
    <!-- Meridian -->
    <g transform="translate(750, 308)">
      <rect width="280" height="44" rx="8" fill="url(#cardDark)" filter="url(#cardShadow)"/>
      <rect x="0" y="8" width="4" height="28" rx="2" fill="url(#gradMeridian)"/>
      <circle cx="16" cy="22" r="3" fill="#22e0c8"/>
      <text x="28" y="19" font-family="Arial, sans-serif" font-size="16" font-weight="800" fill="#ffffff">Aurora Vale</text>
      <text x="28" y="35" font-family="Arial, sans-serif" font-size="10" font-weight="600" fill="#b0a5c5" letter-spacing="0.5">AMBIENT</text>
    </g>

    <!-- 10:00 PM -->
    <!-- Solstice -->
    <g transform="translate(150, 368)">
      <rect width="280" height="44" rx="8" fill="url(#cardLight)" filter="url(#cardShadow)"/>
      <rect x="0" y="8" width="4" height="28" rx="2" fill="url(#gradSolstice)"/>
      <circle cx="16" cy="22" r="3" fill="#ffd23f"/>
      <text x="28" y="19" font-family="Arial, sans-serif" font-size="16" font-weight="800" fill="#ffffff">The Wavelengths</text>
      <text x="28" y="35" font-family="Arial, sans-serif" font-size="10" font-weight="600" fill="#b0a5c5" letter-spacing="0.5">SURF ROCK</text>
    </g>
    <!-- Aurora -->
    <g transform="translate(450, 368)">
      <rect width="280" height="44" rx="8" fill="url(#cardLight)" filter="url(#cardShadow)"/>
      <rect x="0" y="8" width="4" height="28" rx="2" fill="url(#gradAurora)"/>
      <circle cx="16" cy="22" r="3" fill="#ff5fa2"/>
      <text x="28" y="19" font-family="Arial, sans-serif" font-size="16" font-weight="800" fill="#ffffff">Vermilion</text>
      <text x="28" y="35" font-family="Arial, sans-serif" font-size="10" font-weight="600" fill="#b0a5c5" letter-spacing="0.5">DANCE-POP</text>
    </g>
    <!-- Meridian -->
    <g transform="translate(750, 368)">
      <rect width="280" height="44" rx="8" fill="url(#cardLight)" filter="url(#cardShadow)"/>
      <rect x="0" y="8" width="4" height="28" rx="2" fill="url(#gradMeridian)"/>
      <circle cx="16" cy="22" r="3" fill="#22e0c8"/>
      <text x="28" y="19" font-family="Arial, sans-serif" font-size="16" font-weight="800" fill="#ffffff">Golden Hour</text>
      <text x="28" y="35" font-family="Arial, sans-serif" font-size="10" font-weight="600" fill="#b0a5c5" letter-spacing="0.5">CHAMBER POP</text>
    </g>

    <!-- 11:00 PM (Headliner & Placeholders) -->
    
    <!-- Solstice: Headliner -->
    <g transform="translate(150, 428)">
      <rect width="280" height="44" rx="8" fill="url(#gold)" fill-opacity="0.15" stroke="url(#gold)" stroke-width="1.5" filter="url(#cardShadow)"/>
      <rect x="0" y="8" width="4" height="28" rx="2" fill="url(#gold)"/>
      <circle cx="16" cy="22" r="3" fill="#ffd23f"/>
      <text x="28" y="19" font-family="Arial, sans-serif" font-size="16" font-weight="800" fill="url(#gold)">Luna Horizon</text>
      <text x="28" y="35" font-family="Arial, sans-serif" font-size="10" font-weight="600" fill="#ffe066" letter-spacing="0.5">COSMIC DREAM POP</text>
      
      <!-- Star Icon -->
      <path d="M250 12 L252 16 L256 16 L253 19 L254 23 L250 21 L246 23 L247 19 L244 16 L248 16 Z" fill="url(#gold)"/>
    </g>

    <!-- Aurora: Placeholder -->
    <g transform="translate(450, 428)" opacity="0.4">
      <rect width="280" height="44" rx="8" fill="none" stroke="#ffffff" stroke-width="1" stroke-dasharray="4 4"/>
      <text x="140" y="26" font-family="Arial, sans-serif" font-size="11" font-weight="600" text-anchor="middle" fill="#ffffff" letter-spacing="1">STAGE CLOSED</text>
    </g>

    <!-- Meridian: Placeholder -->
    <g transform="translate(750, 428)" opacity="0.4">
      <rect width="280" height="44" rx="8" fill="none" stroke="#ffffff" stroke-width="1" stroke-dasharray="4 4"/>
      <text x="140" y="26" font-family="Arial, sans-serif" font-size="11" font-weight="600" text-anchor="middle" fill="#ffffff" letter-spacing="1">STAGE CLOSED</text>
    </g>

  </g>

  <!-- Footer Section -->
  <g transform="translate(64, 720)">
    <line x1="0" y1="0" x2="1152" y2="0" stroke="#ffffff" stroke-opacity="0.2" stroke-width="1"/>
    
    <!-- Venue Info -->
    <text x="0" y="24" font-family="Arial, sans-serif" font-size="10" font-weight="700" fill="#b0a5c5" letter-spacing="1">VENUE</text>
    <text x="0" y="42" font-family="Arial, sans-serif" font-size="13" font-weight="600" fill="#ffffff">Sunset Park · 1400 River Bend Rd, Austin, TX</text>
    <text x="0" y="58" font-family="Arial, sans-serif" font-size="11" fill="#d0c5e5">Gates 3:30 PM · Free shuttle from Downtown · Rain or shine</text>

    <!-- Ticket Info -->
    <text x="400" y="24" font-family="Arial, sans-serif" font-size="10" font-weight="700" fill="#b0a5c5" letter-spacing="1">TICKETS</text>
    <text x="400" y="42" font-family="Arial, sans-serif" font-size="13" font-weight="600" fill="#ffffff">GA $89 · VIP $149 · Weekend $129</text>
    <text x="400" y="58" font-family="Arial, sans-serif" font-size="11" fill="#d0c5e5">18+ · ID required · Free parking on site</text>

    <!-- Footer CTA -->
    <g transform="translate(868, 12)" filter="url(#ctaShadow)">
      <rect width="284" height="56" rx="28" fill="url(#cta)"/>
      <text x="142" y="34" font-family="Arial, sans-serif" font-size="18" font-weight="900" text-anchor="middle" fill="#2a0f24" letter-spacing="1">GET TICKETS →</text>
    </g>
  </g>

</svg>