<svg xmlns="http://www.w3.org/2000/svg" width="1280" height="800" viewBox="0 0 1280 800">
  <defs>
    <linearGradient id="bg" x1="0" y1="0" x2="0" y2="1">
      <stop offset="0%" stop-color="#07060a"/>
      <stop offset="55%" stop-color="#12101a"/>
      <stop offset="100%" stop-color="#1c1626"/>
    </linearGradient>
    
    <radialGradient id="glow" cx="48%" cy="44%" r="58%">
      <stop offset="0%" stop-color="#3a2a4a" stop-opacity="0.5"/>
      <stop offset="45%" stop-color="#241a30" stop-opacity="0.22"/>
      <stop offset="100%" stop-color="#07060a" stop-opacity="0"/>
    </radialGradient>
    
    <radialGradient id="fig" cx="42%" cy="38%" r="72%">
      <stop offset="0%" stop-color="#f4efe6"/>
      <stop offset="35%" stop-color="#ddd4c6"/>
      <stop offset="70%" stop-color="#b5a898"/>
      <stop offset="100%" stop-color="#7a6e60"/>
    </radialGradient>
    
    <linearGradient id="fig2" x1="0" y1="0" x2="0" y2="1">
      <stop offset="0%" stop-color="#b9b2c6" stop-opacity="0"/>
      <stop offset="15%" stop-color="#b9b2c6" stop-opacity="0.35"/>
      <stop offset="50%" stop-color="#b9b2c6" stop-opacity="0.8"/>
      <stop offset="85%" stop-color="#b9b2c6" stop-opacity="0.35"/>
      <stop offset="100%" stop-color="#b9b2c6" stop-opacity="0"/>
    </linearGradient>
    
    <linearGradient id="fig2b" x1="0" y1="0" x2="1" y2="0">
      <stop offset="0%" stop-color="#b9b2c6" stop-opacity="0"/>
      <stop offset="15%" stop-color="#b9b2c6" stop-opacity="0.35"/>
      <stop offset="50%" stop-color="#b9b2c6" stop-opacity="0.8"/>
      <stop offset="85%" stop-color="#b9b2c6" stop-opacity="0.35"/>
      <stop offset="100%" stop-color="#b9b2c6" stop-opacity="0"/>
    </linearGradient>
    
    <linearGradient id="fig2c" x1="0" y1="1" x2="0" y2="0">
      <stop offset="0%" stop-color="#b9b2c6" stop-opacity="0"/>
      <stop offset="15%" stop-color="#b9b2c6" stop-opacity="0.35"/>
      <stop offset="50%" stop-color="#b9b2c6" stop-opacity="0.8"/>
      <stop offset="85%" stop-color="#b9b2c6" stop-opacity="0.35"/>
      <stop offset="100%" stop-color="#b9b2c6" stop-opacity="0"/>
    </linearGradient>
    
    <filter id="motion" x="-30%" y="-30%" width="160%" height="160%">
      <feGaussianBlur stdDeviation="2.5" result="blur"/>
      <feTurbulence type="fractalNoise" baseFrequency="0.04" numOctaves="2" result="noise"/>
      <feDisplacementMap in="blur" in2="noise" scale="4" xChannelSelector="R" yChannelSelector="G"/>
    </filter>
    
    <filter id="soft" x="-60%" y="-60%" width="220%" height="220%">
      <feGaussianBlur stdDeviation="14"/>
    </filter>
    
    <filter id="grain" x="0" y="0" width="100%" height="100%">
      <feTurbulence type="fractalNoise" baseFrequency="0.9" numOctaves="2" stitchTiles="stitch" result="n"/>
      <feColorMatrix in="n" type="matrix" values="0 0 0 0 1  0 0 0 0 1  0 0 0 0 1  0 0 0 0.05 0"/>
    </filter>
    
    <radialGradient id="vign" cx="50%" cy="46%" r="72%">
      <stop offset="60%" stop-color="#000" stop-opacity="0"/>
      <stop offset="100%" stop-color="#000" stop-opacity="0.55"/>
    </radialGradient>
  </defs>

  <rect width="1280" height="800" fill="url(#bg)"/>
  <rect width="1280" height="800" fill="url(#glow)"/>

  <!-- Faint vertical axis / restraint line -->
  <line x1="520" y1="120" x2="520" y2="700" stroke="#5a4d68" stroke-opacity="0.15" stroke-width="1"/>

  <!-- Ground shadow: soft, blurred radial gradient -->
  <ellipse cx="520" cy="695" rx="160" ry="24" fill="#000" opacity="0.65" filter="url(#soft)"/>

  <!-- Ghosted echoes: repetition / instability -->
  <g opacity="0.09" stroke="#b9b2c6" stroke-width="2" fill="none" transform="translate(-40,20) rotate(-3 520 450)">
    <path d="M505 310 C522 282 555 278 578 295 C594 306 594 332 578 346 C562 358 534 358 514 348 C498 340 492 322 505 310 Z"/>
    <path d="M525 350 C502 385 486 420 482 455 C478 492 490 528 514 552 C534 572 564 578 592 566 C618 555 632 530 626 502 C620 476 598 460 578 470 C562 476 558 496 568 512"/>
  </g>
  <g opacity="0.06" stroke="#b9b2c6" stroke-width="2" fill="none" transform="translate(36,-14) rotate(4 520 450)">
    <path d="M505 310 C522 282 555 278 578 295 C594 306 594 332 578 346 C562 358 534 358 514 348 C498 340 492 322 505 310 Z"/>
    <path d="M525 350 C502 385 486 420 482 455 C478 492 490 528 514 552 C534 572 564 578 592 566 C618 555 632 530 626 502 C620 476 598 460 578 470 C562 476 558 496 568 512"/>
  </g>

  <!-- ===== MAIN FIGURE (scaled up ~35%, shifted right, fragmented) ===== -->
  <g filter="url(#motion)">
    <!-- Torso / head mass -->
    <path d="M505 310 C522 282 555 278 578 295 C594 306 594 332 578 346 C562 358 534 358 514 348 C498 340 492 322 505 310 Z"
          fill="url(#fig)" stroke="#2a2233" stroke-width="1"/>

    <!-- Upper body to hip -->
    <path d="M525 350 C508 378 498 402 495 424"
          fill="none" stroke="url(#fig)" stroke-width="26" stroke-linecap="round"/>
    
    <!-- Lower body: hip → leg → curl -->
    <path d="M493 440 C486 470 492 502 508 524 C522 542 548 548 572 538 C594 528 604 508 598 484 C592 462 574 450 558 458 C546 464 542 480 550 494"
          fill="none" stroke="url(#fig)" stroke-width="26" stroke-linecap="round" stroke-linejoin="round"/>

    <!-- Left arm: reaching up-left, intersecting title space -->
    <path d="M515 330 C488 318 460 302 438 278 C424 264 412 244 406 222"
          fill="none" stroke="url(#fig2b)" stroke-width="14" stroke-linecap="round"/>

    <!-- Right arm: reaching up-right -->
    <path d="M572 340 C606 326 640 310 670 284 C690 268 706 248 716 224"
          fill="none" stroke="url(#fig2c)" stroke-width="13" stroke-linecap="round"/>
  </g>

  <!-- Energy / breath lines -->
  <g fill="none" stroke-linecap="round">
    <path d="M412 230 C392 232 374 242 360 258" stroke="#e7b878" stroke-width="1.4" opacity="0.5"/>
    <path d="M426 214 C408 218 394 228 384 242" stroke="#e7b878" stroke-width="1" opacity="0.32"/>
    <path d="M712 230 C736 224 760 226 782 240" stroke="#e7b878" stroke-width="1.4" opacity="0.5"/>
    <path d="M700 214 C724 208 746 210 766 222" stroke="#e7b878" stroke-width="1" opacity="0.32"/>
  </g>

  <!-- Suspended particles -->
  <g fill="#e7b878">
    <circle cx="390" cy="190" r="2.4" opacity="0.7"/>
    <circle cx="760" cy="240" r="2" opacity="0.55"/>
    <circle cx="360" cy="300" r="1.6" opacity="0.4"/>
    <circle cx="790" cy="300" r="1.6" opacity="0.4"/>
    <circle cx="450" cy="150" r="1.4" opacity="0.35"/>
    <circle cx="720" cy="160" r="1.4" opacity="0.35"/>
    <circle cx="330" cy="250" r="1.2" opacity="0.3"/>
    <circle cx="820" cy="250" r="1.2" opacity="0.3"/>
  </g>

  <!-- ===== TYPOGRAPHY ===== -->
  <g font-family="Georgia, 'Times New Roman', serif">
    <!-- "THE" — slight diagonal skew -->
    <text x="112" y="150" font-size="58" letter-spacing="6" fill="#f1ece2" transform="skewX(-2) translate(4, 0)">THE </text>
    
    <!-- "WEIGHT" — increased letter-spacing to suggest air -->
    <text x="210" y="150" font-size="58" letter-spacing="12" fill="#f1ece2" transform="skewX(-2) translate(4, 0)">WEIGHT</text>
    
    <!-- "OF AIR" — "OF" normal, "AIR" with increased tracking -->
    <text x="112" y="212" font-size="58" letter-spacing="6" fill="#f1ece2" transform="skewX(-2) translate(4, 0)">OF </text>
    <text x="218" y="212" font-size="58" letter-spacing="18" fill="#f1ece2" transform="skewX(-2) translate(4, 0)">AIR</text>

    <!-- Subtitle -->
    <text x="116" y="278" font-size="20" letter-spacing="3" font-style="italic" fill="#b8a98c">A contemporary movement performance</text>
  </g>

  <!-- Bottom info -->
  <g font-family="Georgia, 'Times New Roman', serif">
    <text x="114" y="706" font-size="34" letter-spacing="3" fill="#f1ece2">OCTOBER 18&#8211;20 &#183; 8 PM</text>
    <text x="114" y="746" font-size="22" letter-spacing="4" fill="#c9beaf">MERIDIAN ARTS THEATRE</text>
  </g>

  <!-- Fine frame -->
  <rect x="24" y="24" width="1232" height="752" fill="none" stroke="#4a3f56" stroke-opacity="0.4" stroke-width="1"/>

  <rect width="1280" height="800" fill="url(#vign)"/>
  <rect width="1280" height="800" filter="url(#grain)" opacity="0.5"/>
</svg>